<svg xmlns="http://www.w3.org/2000/svg" viewBox="0 0 24 24"><path fill="#d9e4ef" d="M12 .297a12 12 0 0 0-3.793 23.403c.6.111.82-.258.82-.577v-2.234c-3.338.724-4.042-1.416-4.042-1.416-.546-1.387-1.333-1.756-1.333-1.756-1.089-.745.084-.729.084-.729 1.205.084 1.838 1.236 1.838 1.236 1.07 1.835 2.807 1.305 3.492.998.108-.776.418-1.305.762-1.604-2.665-.305-5.467-1.334-5.467-5.931 0-1.311.469-2.381 1.236-3.221-.123-.304-.535-1.524.117-3.176 0 0 1.008-.322 3.301 1.23.957-.266 1.985-.399 3.003-.404 1.018.005 2.042.138 3.003.404 2.291-1.552 3.297-1.23 3.297-1.23.653 1.653.241 2.873.118 3.176.77.84 1.235 1.911 1.235 3.221 0 4.609-2.807 5.624-5.479 5.921.43.372.823 1.102.823 2.222v3.293c0 .322.216.694.825.576A12 12 0 0 0 12 .297"/></svg>