<svg viewBox="0 0 147.40234 147.40234" xmlns="http://www.w3.org/2000/svg" fill="#111822">
<path
d="M 0,29.480469 V 58.960938 H 29.480468 V 29.480469 Z m 14.740234,5.669922 a 9.0708666,9.0708666 0 0 1 9.070312,9.070312 9.0708666,9.0708666 0 0 1 -9.070312,9.070313 9.0708666,9.0708666 0 0 1 -9.0703126,-9.070313 9.0708666,9.0708666 0 0 1 9.0703126,-9.070312 z" />
<path
d="M 0,58.960938 V 88.441406 H 29.480468 V 58.960938 Z m 14.740234,5.669922 a 9.0708666,9.0708666 0 0 1 9.070312,9.070312 9.0708666,9.0708666 0 0 1 -9.070312,9.070314 9.0708666,9.0708666 0 0 1 -9.0703126,-9.070314 9.0708666,9.0708666 0 0 1 9.0703126,-9.070312 z" />
<path
d="M 5e-8,88.441404 V 117.92187 H 29.480468 V 88.441404 Z M 14.740234,94.111328 a 9.0708666,9.0708666 0 0 1 9.070312,9.070312 9.0708666,9.0708666 0 0 1 -9.070312,9.07031 9.0708666,9.0708666 0 0 1 -9.0703126,-9.07031 9.0708666,9.0708666 0 0 1 9.0703126,-9.070312 z" />
<path
d="m 29.480468,117.92188 v 29.48045 h 29.480468 v -29.48045 z m 14.740234,5.6699 a 9.0708666,9.0708666 0 0 1 9.070312,9.07032 9.0708666,9.0708666 0 0 1 -9.070312,9.07031 9.0708666,9.0708666 0 0 1 -9.070313,-9.07031 9.0708666,9.0708666 0 0 1 9.070313,-9.07032 z" />
<path
d="m 58.960936,117.92187 v 29.48047 h 29.480468 v -29.48047 z m 14.740234,5.66992 a 9.0708666,9.0708666 0 0 1 9.070312,9.07031 9.0708666,9.0708666 0 0 1 -9.070312,9.07032 9.0708666,9.0708666 0 0 1 -9.070313,-9.07032 9.0708666,9.0708666 0 0 1 9.070313,-9.07031 z" />
<path
d="m 0,117.92187 v 29.48047 h 29.480468 v -29.48047 z m 14.740234,5.66993 a 9.0708666,9.0708666 0 0 1 9.070312,9.07031 9.0708666,9.0708666 0 0 1 -9.070312,9.07031 9.0708666,9.0708666 0 0 1 -9.0703126,-9.07031 9.0708666,9.0708666 0 0 1 9.0703126,-9.07031 z" />
<path
d="m 117.92188,117.92187 v 29.48047 h 29.48047 v -29.48047 z m 14.74024,5.66992 a 9.0708666,9.0708666 0 0 1 9.07031,9.07031 9.0708666,9.0708666 0 0 1 -9.07031,9.07032 9.0708666,9.0708666 0 0 1 -9.07032,-9.07032 9.0708666,9.0708666 0 0 1 9.07032,-9.07031 z" />
<path
d="m 88.441404,117.92187 v 29.48047 h 29.480476 v -29.48047 z m 14.740246,5.66992 a 9.0708666,9.0708666 0 0 1 9.07031,9.07032 9.0708666,9.0708666 0 0 1 -9.07031,9.07031 9.0708666,9.0708666 0 0 1 -9.070324,-9.07031 9.0708666,9.0708666 0 0 1 9.070324,-9.07032 z" />
<path
d="m 117.92188,88.441408 v 29.480462 h 29.48047 V 88.441408 Z m 14.74024,5.66992 a 9.0708666,9.0708666 0 0 1 9.07031,9.070312 9.0708666,9.0708666 0 0 1 -9.07031,9.07031 9.0708666,9.0708666 0 0 1 -9.07032,-9.07031 9.0708666,9.0708666 0 0 1 9.07032,-9.070312 z" />
<path
d="m 117.92188,58.960936 v 29.480472 h 29.48047 V 58.960936 Z m 14.74024,5.669922 a 9.0708666,9.0708666 0 0 1 9.07031,9.070312 9.0708666,9.0708666 0 0 1 -9.07031,9.070318 9.0708666,9.0708666 0 0 1 -9.07032,-9.070318 9.0708666,9.0708666 0 0 1 9.07032,-9.070312 z" />
<path
d="M 88.441407,58.960938 V 88.441407 H 117.92188 V 58.960938 Z m 14.740243,5.669922 a 9.0708666,9.0708666 0 0 1 9.07031,9.070312 9.0708666,9.0708666 0 0 1 -9.07031,9.070313 9.0708666,9.0708666 0 0 1 -9.070324,-9.070313 9.0708666,9.0708666 0 0 1 9.070324,-9.070312 z" />
<path
d="m 58.960935,0 v 29.480469 h 29.48047 V 0 Z m 14.74024,5.6699216 a 9.0708666,9.0708666 0 0 1 9.07031,9.0703124 9.0708666,9.0708666 0 0 1 -9.07031,9.070313 9.0708666,9.0708666 0 0 1 -9.07032,-9.070313 9.0708666,9.0708666 0 0 1 9.07032,-9.0703124 z" />
<path
d="M 29.480468,29.480469 V 58.960938 H 58.960936 V 29.480469 Z m 14.740234,5.669922 a 9.0708666,9.0708666 0 0 1 9.070312,9.070312 9.0708666,9.0708666 0 0 1 -9.070312,9.070313 9.0708666,9.0708666 0 0 1 -9.070313,-9.070313 9.0708666,9.0708666 0 0 1 9.070313,-9.070312 z" />
<path
d="M 58.960936,29.480468 V 58.960937 H 88.441404 V 29.480468 Z M 73.70117,35.15039 a 9.0708666,9.0708666 0 0 1 9.070312,9.070312 9.0708666,9.0708666 0 0 1 -9.070312,9.070313 9.0708666,9.0708666 0 0 1 -9.070313,-9.070313 9.0708666,9.0708666 0 0 1 9.070313,-9.070312 z" />
<path
d="M 58.960936,58.960935 V 88.441404 H 88.441404 V 58.960935 Z m 14.740234,5.669922 a 9.0708666,9.0708666 0 0 1 9.070312,9.070312 9.0708666,9.0708666 0 0 1 -9.070312,9.070313 9.0708666,9.0708666 0 0 1 -9.070313,-9.070313 9.0708666,9.0708666 0 0 1 9.070313,-9.070312 z" />
<path
d="M 58.960936,88.441406 V 117.92187 H 88.441404 V 88.441406 Z m 14.740234,5.669921 a 9.0708666,9.0708666 0 0 1 9.070312,9.070313 9.0708666,9.0708666 0 0 1 -9.070312,9.07031 9.0708666,9.0708666 0 0 1 -9.070313,-9.07031 9.0708666,9.0708666 0 0 1 9.070313,-9.070313 z" />
</svg>
