<svg viewBox="0 0 147.40234 147.40234" xmlns="http://www.w3.org/2000/svg" fill="#111822"><path
d="M0,29.480469V58.960938H29.480468V29.480469Zm14.740234,5.669922a9.0708666,9.0708666 0 0 1 9.070312,9.070312 9.0708666,9.0708666 0 0 1-9.070312,9.070313 9.0708666,9.0708666 0 0 1-9.0703126,-9.070313 9.0708666,9.0708666 0 0 1 9.0703126,-9.070312z"/><path
d="M0,58.960938V88.441406H29.480468V58.960938Zm14.740234,5.669922a9.0708666,9.0708666 0 0 1 9.070312,9.070312 9.0708666,9.0708666 0 0 1-9.070312,9.070314 9.0708666,9.0708666 0 0 1-9.0703126,-9.070314 9.0708666,9.0708666 0 0 1 9.0703126,-9.070312z"/><path
d="M5e-8,88.441404V117.92187H29.480468V88.441404ZM14.740234,94.111328a9.0708666,9.0708666 0 0 1 9.070312,9.070312 9.0708666,9.0708666 0 0 1-9.070312,9.07031 9.0708666,9.0708666 0 0 1-9.0703126,-9.07031 9.0708666,9.0708666 0 0 1 9.0703126,-9.070312z"/><path
d="m29.480468,117.92188v29.48045h29.480468v-29.48045zm14.740234,5.6699a9.0708666,9.0708666 0 0 1 9.070312,9.07032 9.0708666,9.0708666 0 0 1-9.070312,9.07031 9.0708666,9.0708666 0 0 1-9.070313,-9.07031 9.0708666,9.0708666 0 0 1 9.070313,-9.07032z"/><path
d="m58.960936,117.92187v29.48047h29.480468v-29.48047zm14.740234,5.66992a9.0708666,9.0708666 0 0 1 9.070312,9.07031 9.0708666,9.0708666 0 0 1-9.070312,9.07032 9.0708666,9.0708666 0 0 1-9.070313,-9.07032 9.0708666,9.0708666 0 0 1 9.070313,-9.07031z"/><path
d="m0,117.92187v29.48047h29.480468v-29.48047zm14.740234,5.66993a9.0708666,9.0708666 0 0 1 9.070312,9.07031 9.0708666,9.0708666 0 0 1-9.070312,9.07031 9.0708666,9.0708666 0 0 1-9.0703126,-9.07031 9.0708666,9.0708666 0 0 1 9.0703126,-9.07031z"/><path
d="m117.92188,117.92187v29.48047h29.48047v-29.48047zm14.74024,5.66992a9.0708666,9.0708666 0 0 1 9.07031,9.07031 9.0708666,9.0708666 0 0 1-9.07031,9.07032 9.0708666,9.0708666 0 0 1-9.07032,-9.07032 9.0708666,9.0708666 0 0 1 9.07032,-9.07031z"/><path
d="m88.441404,117.92187v29.48047h29.480476v-29.48047zm14.740246,5.66992a9.0708666,9.0708666 0 0 1 9.07031,9.07032 9.0708666,9.0708666 0 0 1-9.07031,9.07031 9.0708666,9.0708666 0 0 1-9.070324,-9.07031 9.0708666,9.0708666 0 0 1 9.070324,-9.07032z"/><path
d="m117.92188,88.441408v29.480462h29.48047V88.441408Zm14.74024,5.66992a9.0708666,9.0708666 0 0 1 9.07031,9.070312 9.0708666,9.0708666 0 0 1-9.07031,9.07031 9.0708666,9.0708666 0 0 1-9.07032,-9.07031 9.0708666,9.0708666 0 0 1 9.07032,-9.070312z"/><path
d="m117.92188,58.960936v29.480472h29.48047V58.960936Zm14.74024,5.669922a9.0708666,9.0708666 0 0 1 9.07031,9.070312 9.0708666,9.0708666 0 0 1-9.07031,9.070318 9.0708666,9.0708666 0 0 1-9.07032,-9.070318 9.0708666,9.0708666 0 0 1 9.07032,-9.070312z"/><path
d="M88.441407,58.960938V88.441407H117.92188V58.960938Zm14.740243,5.669922a9.0708666,9.0708666 0 0 1 9.07031,9.070312 9.0708666,9.0708666 0 0 1-9.07031,9.070313 9.0708666,9.0708666 0 0 1-9.070324,-9.070313 9.0708666,9.0708666 0 0 1 9.070324,-9.070312z"/><path
d="m58.960935,0v29.480469h29.48047V0Zm14.74024,5.6699216a9.0708666,9.0708666 0 0 1 9.07031,9.0703124 9.0708666,9.0708666 0 0 1-9.07031,9.070313 9.0708666,9.0708666 0 0 1-9.07032,-9.070313 9.0708666,9.0708666 0 0 1 9.07032,-9.0703124z"/><path
d="M29.480468,29.480469V58.960938H58.960936V29.480469Zm14.740234,5.669922a9.0708666,9.0708666 0 0 1 9.070312,9.070312 9.0708666,9.0708666 0 0 1-9.070312,9.070313 9.0708666,9.0708666 0 0 1-9.070313,-9.070313 9.0708666,9.0708666 0 0 1 9.070313,-9.070312z"/><path
d="M58.960936,29.480468V58.960937H88.441404V29.480468ZM73.70117,35.15039a9.0708666,9.0708666 0 0 1 9.070312,9.070312 9.0708666,9.0708666 0 0 1-9.070312,9.070313 9.0708666,9.0708666 0 0 1-9.070313,-9.070313 9.0708666,9.0708666 0 0 1 9.070313,-9.070312z"/><path
d="M58.960936,58.960935V88.441404H88.441404V58.960935Zm14.740234,5.669922a9.0708666,9.0708666 0 0 1 9.070312,9.070312 9.0708666,9.0708666 0 0 1-9.070312,9.070313 9.0708666,9.0708666 0 0 1-9.070313,-9.070313 9.0708666,9.0708666 0 0 1 9.070313,-9.070312z"/><path
d="M58.960936,88.441406V117.92187H88.441404V88.441406Zm14.740234,5.669921a9.0708666,9.0708666 0 0 1 9.070312,9.070313 9.0708666,9.0708666 0 0 1-9.070312,9.07031 9.0708666,9.0708666 0 0 1-9.070313,-9.07031 9.0708666,9.0708666 0 0 1 9.070313,-9.070313z"/></svg>