<svg viewBox="0 0 501.16805 147.40234" fill="#111822" xmlns="http://www.w3.org/2000/svg"><path d="M0,29.480474V58.960943H29.480468V29.480474Zm14.740234,5.669922a9.0708666,9.0708666 0 0 1 9.070312,9.070312 9.0708666,9.0708666 0 0 1-9.070312,9.070313 9.0708666,9.0708666 0 0 1-9.0703126,-9.070313 9.0708666,9.0708666 0 0 1 9.0703126,-9.070312z"/><path d="M0,58.960943V88.441411H29.480468V58.960943Zm14.740234,5.669922a9.0708666,9.0708666 0 0 1 9.070312,9.070312 9.0708666,9.0708666 0 0 1-9.070312,9.070314 9.0708666,9.0708666 0 0 1-9.0703126,-9.070314 9.0708666,9.0708666 0 0 1 9.0703126,-9.070312z"/><path d="M5e-8,88.441409V117.92188H29.480468V88.441409ZM14.740234,94.111333a9.0708666,9.0708666 0 0 1 9.070312,9.070317 9.0708666,9.0708666 0 0 1-9.070312,9.0703 9.0708666,9.0708666 0 0 1-9.0703126,-9.07031 9.0708666,9.0708666 0 0 1 9.0703126,-9.070307z"/><path d="m29.480468,117.92189v29.48044h29.480468v-29.48044zm14.740234,5.6699a9.0708666,9.0708666 0 0 1 9.070312,9.07031 9.0708666,9.0708666 0 0 1-9.070312,9.07031 9.0708666,9.0708666 0 0 1-9.070313,-9.07031 9.0708666,9.0708666 0 0 1 9.070313,-9.07031z"/><path d="m58.960936,117.92188v29.48046h29.480468v-29.48046zm14.740234,5.66992a9.0708666,9.0708666 0 0 1 9.070312,9.0703 9.0708666,9.0708666 0 0 1-9.070312,9.07032 9.0708666,9.0708666 0 0 1-9.070313,-9.07032 9.0708666,9.0708666 0 0 1 9.070313,-9.0703z"/><path d="m0,117.92188v29.48046h29.480468v-29.48046zm14.740234,5.66992a9.0708666,9.0708666 0 0 1 9.070312,9.07031 9.0708666,9.0708666 0 0 1-9.070312,9.07031 9.0708666,9.0708666 0 0 1-9.0703126,-9.07031 9.0708666,9.0708666 0 0 1 9.0703126,-9.07031z"/><path d="m117.92188,117.92188v29.48046h29.48047v-29.48046zm14.74024,5.66992a9.0708666,9.0708666 0 0 1 9.07031,9.0703 9.0708666,9.0708666 0 0 1-9.07031,9.07032 9.0708666,9.0708666 0 0 1-9.07032,-9.07032 9.0708666,9.0708666 0 0 1 9.07032,-9.0703z"/><path d="m88.441404,117.92188v29.48046h29.480476v-29.48046zm14.740246,5.66992a9.0708666,9.0708666 0 0 1 9.07031,9.07031 9.0708666,9.0708666 0 0 1-9.07031,9.07031 9.0708666,9.0708666 0 0 1-9.070324,-9.07031 9.0708666,9.0708666 0 0 1 9.070324,-9.07031z"/><path d="m117.92188,88.441413v29.480467h29.48047V88.441413Zm14.74024,5.66992a9.0708666,9.0708666 0 0 1 9.07031,9.070317 9.0708666,9.0708666 0 0 1-9.07031,9.0703 9.0708666,9.0708666 0 0 1-9.07032,-9.07031 9.0708666,9.0708666 0 0 1 9.07032,-9.070307z"/><path d="m117.92188,58.960941v29.480472h29.48047V58.960941Zm14.74024,5.669922a9.0708666,9.0708666 0 0 1 9.07031,9.070312 9.0708666,9.0708666 0 0 1-9.07031,9.070318 9.0708666,9.0708666 0 0 1-9.07032,-9.070318 9.0708666,9.0708666 0 0 1 9.07032,-9.070312z"/><path d="M88.441407,58.960943V88.441412H117.92188V58.960943Zm14.740243,5.669922a9.0708666,9.0708666 0 0 1 9.07031,9.070312 9.0708666,9.0708666 0 0 1-9.07031,9.070313 9.0708666,9.0708666 0 0 1-9.070324,-9.070313 9.0708666,9.0708666 0 0 1 9.070324,-9.070312z"/><path d="m58.960935,5e-6v29.480469h29.48047V5e-6Zm14.74024,5.6699216a9.0708666,9.0708666 0 0 1 9.07031,9.0703124 9.0708666,9.0708666 0 0 1-9.07031,9.070313 9.0708666,9.0708666 0 0 1-9.07032,-9.070313 9.0708666,9.0708666 0 0 1 9.07032,-9.0703124z"/><path d="M29.480468,29.480474V58.960943H58.960936V29.480474Zm14.740234,5.669922a9.0708666,9.0708666 0 0 1 9.070312,9.070312 9.0708666,9.0708666 0 0 1-9.070312,9.070313 9.0708666,9.0708666 0 0 1-9.070313,-9.070313 9.0708666,9.0708666 0 0 1 9.070313,-9.070312z"/><path d="M58.960936,29.480473V58.960942H88.441404V29.480473Zm14.740234,5.669922a9.0708666,9.0708666 0 0 1 9.070312,9.070312 9.0708666,9.0708666 0 0 1-9.070312,9.070313 9.0708666,9.0708666 0 0 1-9.070313,-9.070313 9.0708666,9.0708666 0 0 1 9.070313,-9.070312z"/><path d="M58.960936,58.96094V88.441409H88.441404V58.96094Zm14.740234,5.669922a9.0708666,9.0708666 0 0 1 9.070312,9.070312 9.0708666,9.0708666 0 0 1-9.070312,9.070313 9.0708666,9.0708666 0 0 1-9.070313,-9.070313 9.0708666,9.0708666 0 0 1 9.070313,-9.070312z"/><path d="M58.960936,88.441411V117.92188H88.441404V88.441411Zm14.740234,5.669921a9.0708666,9.0708666 0 0 1 9.070312,9.070318 9.0708666,9.0708666 0 0 1-9.070312,9.0703 9.0708666,9.0708666 0 0 1-9.070313,-9.07031 9.0708666,9.0708666 0 0 1 9.070313,-9.070308z"/><g><path d="m176.88284,117.92186v29.48048h29.48046v-29.48048zm14.74023,5.66992a9.0708666,9.0708666 0 0 1 9.07031,9.07031 9.0708666,9.0708666 0 0 1-9.07031,9.07033 9.0708666,9.0708666 0 0 1-9.07031,-9.07033 9.0708666,9.0708666 0 0 1 9.07031,-9.07031z"/><path d="M176.88284,58.96093V88.441399H206.3633V58.96093Zm14.74023,5.669922a9.0708666,9.0708666 0 0 1 9.07031,9.070312 9.0708666,9.0708666 0 0 1-9.07031,9.070313 9.0708666,9.0708666 0 0 1-9.07031,-9.070313 9.0708666,9.0708666 0 0 1 9.07031,-9.070312z"/><path d="M176.88284,88.441401V117.92186H206.3633V88.441401Zm14.74023,5.669921a9.0708666,9.0708666 0 0 1 9.07031,9.070318 9.0708666,9.0708666 0 0 1-9.07031,9.07031 9.0708666,9.0708666 0 0 1-9.07031,-9.07031 9.0708666,9.0708666 0 0 1 9.07031,-9.070318z"/><path d="m206.36332,58.96093v29.480469h29.48046V58.96093Zm14.74023,5.669922a9.0708666,9.0708666 0 0 1 9.07031,9.070312 9.0708666,9.0708666 0 0 1-9.07031,9.070313 9.0708666,9.0708666 0 0 1-9.07031,-9.070313 9.0708666,9.0708666 0 0 1 9.07031,-9.070312z"/></g><g transform="translate(-29.48049)"><path d="m294.80476,117.92186v29.48048h29.48046v-29.48048zm14.74023,5.66992a9.0708666,9.0708666 0 0 1 9.07031,9.07031 9.0708666,9.0708666 0 0 1-9.07031,9.07033 9.0708666,9.0708666 0 0 1-9.07031,-9.07033 9.0708666,9.0708666 0 0 1 9.07031,-9.07031z"/><path d="m294.80475,-5e-6v29.480469h29.48048V-5e-6ZM309.545,5.669917a9.0708666,9.0708666 0 0 1 9.07031,9.070312 9.0708666,9.0708666 0 0 1-9.07031,9.070313 9.0708666,9.0708666 0 0 1-9.07033,-9.070313 9.0708666,9.0708666 0 0 1 9.07033,-9.070312z"/><path d="m294.80476,58.96093v29.480469h29.48046V58.96093Zm14.74023,5.669922a9.0708666,9.0708666 0 0 1 9.07031,9.070312 9.0708666,9.0708666 0 0 1-9.07031,9.070313 9.0708666,9.0708666 0 0 1-9.07031,-9.070313 9.0708666,9.0708666 0 0 1 9.07031,-9.070312z"/><path d="m294.80476,88.441401v29.480459h29.48046V88.441401Zm14.74023,5.669921a9.0708666,9.0708666 0 0 1 9.07031,9.070318 9.0708666,9.0708666 0 0 1-9.07031,9.07031 9.0708666,9.0708666 0 0 1-9.07031,-9.07031 9.0708666,9.0708666 0 0 1 9.07031,-9.070318z"/></g><g transform="translate(-29.4805)"><path d="m353.76572,117.92186v29.48048h29.48046v-29.48048zm14.74023,5.66992a9.0708666,9.0708666 0 0 1 9.07031,9.07031 9.0708666,9.0708666 0 0 1-9.07031,9.07033 9.0708666,9.0708666 0 0 1-9.07031,-9.07033 9.0708666,9.0708666 0 0 1 9.07031,-9.07031z"/><path d="m353.76572,58.96093v29.480469h29.48046V58.96093Zm14.74023,5.669922a9.0708666,9.0708666 0 0 1 9.07031,9.070312 9.0708666,9.0708666 0 0 1-9.07031,9.070313 9.0708666,9.0708666 0 0 1-9.07031,-9.070313 9.0708666,9.0708666 0 0 1 9.07031,-9.070312z"/><path d="m353.76572,88.441401v29.480459h29.48046V88.441401Zm14.74023,5.669921a9.0708666,9.0708666 0 0 1 9.07031,9.070318 9.0708666,9.0708666 0 0 1-9.07031,9.07031 9.0708666,9.0708666 0 0 1-9.07031,-9.07031 9.0708666,9.0708666 0 0 1 9.07031,-9.070318z"/><path d="m383.2462,117.92186v29.48048h29.48046v-29.48048zm14.74023,5.66992a9.0708666,9.0708666 0 0 1 9.07031,9.07031 9.0708666,9.0708666 0 0 1-9.07031,9.07033 9.0708666,9.0708666 0 0 1-9.07031,-9.07033 9.0708666,9.0708666 0 0 1 9.07031,-9.07031z"/><path d="m383.2462,58.96093v29.480469h29.48046V58.96093Zm14.74023,5.669922a9.0708666,9.0708666 0 0 1 9.07031,9.070312 9.0708666,9.0708666 0 0 1-9.07031,9.070313 9.0708666,9.0708666 0 0 1-9.07031,-9.070313 9.0708666,9.0708666 0 0 1 9.07031,-9.070312z"/></g><g transform="translate(-58.96099)"><path d="m471.68764,117.92186v29.48048h29.48046v-29.48048zm14.74023,5.66992a9.0708666,9.0708666 0 0 1 9.07031,9.07031 9.0708666,9.0708666 0 0 1-9.07031,9.07033 9.0708666,9.0708666 0 0 1-9.07031,-9.07033 9.0708666,9.0708666 0 0 1 9.07031,-9.07031z"/><path d="m471.68763,-5e-6v29.480469h29.48048V-5e-6Zm14.74025,5.669922a9.0708666,9.0708666 0 0 1 9.07031,9.070312 9.0708666,9.0708666 0 0 1-9.07031,9.070313 9.0708666,9.0708666 0 0 1-9.07033,-9.070313 9.0708666,9.0708666 0 0 1 9.07033,-9.070312z"/><path d="M471.68764,29.480463V58.960932H501.1681V29.480463Zm14.74023,5.669922a9.0708666,9.0708666 0 0 1 9.07031,9.070312 9.0708666,9.0708666 0 0 1-9.07031,9.070313 9.0708666,9.0708666 0 0 1-9.07031,-9.070313 9.0708666,9.0708666 0 0 1 9.07031,-9.070312z"/><path d="M471.68764,58.96093V88.441399H501.1681V58.96093Zm14.74023,5.669922a9.0708666,9.0708666 0 0 1 9.07031,9.070312 9.0708666,9.0708666 0 0 1-9.07031,9.070313 9.0708666,9.0708666 0 0 1-9.07031,-9.070313 9.0708666,9.0708666 0 0 1 9.07031,-9.070312z"/><path d="M471.68764,88.441401V117.92186H501.1681V88.441401Zm14.74023,5.669921a9.0708666,9.0708666 0 0 1 9.07031,9.070318 9.0708666,9.0708666 0 0 1-9.07031,9.07031 9.0708666,9.0708666 0 0 1-9.07031,-9.07031 9.0708666,9.0708666 0 0 1 9.07031,-9.070318z"/><path d="m501.16812,88.441401v29.480459h29.48046V88.441401Zm14.74023,5.669921a9.0708666,9.0708666 0 0 1 9.07031,9.070318 9.0708666,9.0708666 0 0 1-9.07031,9.07031 9.0708666,9.0708666 0 0 1-9.07031,-9.07031 9.0708666,9.0708666 0 0 1 9.07031,-9.070318z"/><path d="m530.6486,117.92186v29.48048h29.48046v-29.48048zm14.74023,5.66992a9.0708666,9.0708666 0 0 1 9.07031,9.07031 9.0708666,9.0708666 0 0 1-9.07031,9.07033 9.0708666,9.0708666 0 0 1-9.07031,-9.07033 9.0708666,9.0708666 0 0 1 9.07031,-9.07031z"/><path d="m530.6486,58.96093v29.480469h29.48046V58.96093Zm14.74023,5.669922a9.0708666,9.0708666 0 0 1 9.07031,9.070312 9.0708666,9.0708666 0 0 1-9.07031,9.070313 9.0708666,9.0708666 0 0 1-9.07031,-9.070313 9.0708666,9.0708666 0 0 1 9.07031,-9.070312z"/></g></svg>